<?xml version="1.0" encoding="UTF-8" standalone="no" ?>
<!DOCTYPE svg PUBLIC "-//W3C//DTD SVG 1.1//EN" "http://www.w3.org/Graphics/SVG/1.1/DTD/svg11.dtd">
<svg xmlns="http://www.w3.org/2000/svg" xmlns:xlink="http://www.w3.org/1999/xlink" version="1.1" width="1080" height="1080" viewBox="0 0 1080 1080" xml:space="preserve">
<desc>Created with Fabric.js 5.2.4</desc>
<defs>
</defs>
<g transform="matrix(1 0 0 1 540 540)" id="e8055fa6-d287-4360-acbc-245b6e9479ad"  >
</g>
<g transform="matrix(1 0 0 1 540 540)" id="709b8fec-1b72-4755-b769-2159b1ac093d"  >
<rect style="stroke: none; stroke-width: 1; stroke-dasharray: none; stroke-linecap: butt; stroke-dashoffset: 0; stroke-linejoin: miter; stroke-miterlimit: 4; fill: rgb(255,255,255); fill-rule: nonzero; opacity: 1; visibility: hidden;" vector-effect="non-scaling-stroke"  x="-540" y="-540" rx="0" ry="0" width="1080" height="1080" />
</g>
<g transform="matrix(1 0 0 1 565.55 540)"  >
<g style="" vector-effect="non-scaling-stroke"   >
		<g transform="matrix(1 0 0 1 0 0)"  >
<rect style="stroke: none; stroke-width: 1; stroke-dasharray: none; stroke-linecap: butt; stroke-dashoffset: 0; stroke-linejoin: miter; stroke-miterlimit: 4; fill: rgb(255,255,255); fill-rule: nonzero; opacity: 1;" vector-effect="non-scaling-stroke"  x="-101.5" y="-45.5" rx="6" ry="6" width="203" height="91" />
</g>
		<g transform="matrix(1 0 0 1 -54.5 0)" clip-path="url(#CLIPPATH_7)"  >
<clipPath id="CLIPPATH_7" >
	<rect transform="matrix(1 0 0 1 0 0)" id="clip0_7_3" x="-22" y="-22" rx="0" ry="0" width="44" height="44" />
</clipPath>
<path style="stroke: none; stroke-width: 1; stroke-dasharray: none; stroke-linecap: butt; stroke-dashoffset: 0; stroke-linejoin: miter; stroke-miterlimit: 4; fill: rgb(54,73,109); fill-rule: nonzero; opacity: 1;" vector-effect="non-scaling-stroke"  transform=" translate(-47, -45.5)" d="M 47 67.5 C 34.8721 67.5 25 57.6279 25 45.5 C 25 40.1396 26.9551 34.9619 30.5 30.9443 C 30.9727 30.4072 31.7891 30.3535 32.3262 30.8262 C 32.8633 31.2988 32.917 32.1152 32.4443 32.6523 C 29.3184 36.1973 27.5889 40.7627 27.5889 45.4892 C 27.5889 56.1885 36.3008 64.9004 47 64.9004 C 57.6992 64.9004 66.4111 56.1885 66.4111 45.4892 C 66.4111 34.79 57.6992 26.0889 47 26.0889 C 44.0674 26.0781 41.1777 26.7441 38.5459 28.0225 C 37.9014 28.334 37.1279 28.0654 36.8164 27.4209 C 36.5049 26.7764 36.7734 26.0029 37.418 25.6914 C 40.4043 24.2412 43.6807 23.4892 47 23.5 C 59.1279 23.5 69 33.3721 69 45.5 C 69 57.6279 59.1279 67.5 47 67.5 Z" stroke-linecap="round" />
</g>
		<g transform="matrix(1 0 0 1 -54.5 0)" clip-path="url(#CLIPPATH_8)"  >
<clipPath id="CLIPPATH_8" >
	<rect transform="matrix(1 0 0 1 0 0)" id="clip0_7_3" x="-22" y="-22" rx="0" ry="0" width="44" height="44" />
</clipPath>
<path style="stroke: none; stroke-width: 1; stroke-dasharray: none; stroke-linecap: butt; stroke-dashoffset: 0; stroke-linejoin: miter; stroke-miterlimit: 4; fill: rgb(165,148,249); fill-rule: nonzero; opacity: 1;" vector-effect="non-scaling-stroke"  transform=" translate(-47, -45.5)" d="M 62.5332 45.5 C 62.5332 54.0723 55.583 61.0332 47 61.0332 C 38.417 61.0332 31.4668 54.0723 31.4668 45.5 C 31.4668 36.9277 38.4277 29.9668 47 29.9668 C 55.5723 29.9668 62.5332 36.9277 62.5332 45.5 Z" stroke-linecap="round" />
</g>
		<g transform="matrix(1 0 0 1 -54.5 0)" clip-path="url(#CLIPPATH_9)"  >
<clipPath id="CLIPPATH_9" >
	<rect transform="matrix(1 0 0 1 0 0)" id="clip0_7_3" x="-22" y="-22" rx="0" ry="0" width="44" height="44" />
</clipPath>
<path style="stroke: none; stroke-width: 1; stroke-dasharray: none; stroke-linecap: butt; stroke-dashoffset: 0; stroke-linejoin: miter; stroke-miterlimit: 4; fill: rgb(54,73,109); fill-rule: nonzero; opacity: 1;" vector-effect="non-scaling-stroke"  transform=" translate(-47, -45.5)" d="M 47 62.3223 C 37.7187 62.3223 30.1777 54.7812 30.1777 45.5 C 30.1777 36.2187 37.7187 28.6777 47 28.6777 C 56.2812 28.6777 63.8223 36.2187 63.8223 45.5 C 63.8223 54.7812 56.2812 62.3223 47 62.3223 L 47 62.3223 Z M 47 31.2666 C 39.1475 31.2666 32.7666 37.6475 32.7666 45.5 C 32.7666 53.3525 39.1475 59.7334 47 59.7334 C 54.8525 59.7334 61.2334 53.3418 61.2334 45.5 C 61.2334 37.6582 54.8525 31.2666 47 31.2666 L 47 31.2666 Z" stroke-linecap="round" />
</g>
		<g transform="matrix(1 0 0 1 -53.99 0.19)" clip-path="url(#CLIPPATH_10)"  >
<clipPath id="CLIPPATH_10" >
	<rect transform="matrix(1 0 0 1 -0.51 -0.2)" id="clip0_7_3" x="-22" y="-22" rx="0" ry="0" width="44" height="44" />
</clipPath>
<path style="stroke: none; stroke-width: 1; stroke-dasharray: none; stroke-linecap: butt; stroke-dashoffset: 0; stroke-linejoin: miter; stroke-miterlimit: 4; fill: rgb(54,73,109); fill-rule: nonzero; opacity: 1;" vector-effect="non-scaling-stroke"  transform=" translate(-47.51, -45.7)" d="M 46.5811 50.001 C 45.6357 50.001 44.7334 49.625 44.0566 48.959 L 40.5762 45.4678 C 40.0713 44.9629 40.0713 44.1465 40.5762 43.6416 C 41.0811 43.1367 41.8975 43.1367 42.4023 43.6416 L 45.8936 47.1328 C 46.2803 47.5088 46.8926 47.5088 47.2686 47.1328 L 52.6182 41.7725 C 53.123 41.2676 53.9395 41.2676 54.4443 41.7725 C 54.9492 42.2773 54.9492 43.0937 54.4443 43.5986 L 49.1055 48.959 C 48.4395 49.625 47.5264 50.001 46.5811 50.001 Z" stroke-linecap="round" />
</g>
		<g transform="matrix(1 0 0 1 8.91 -10.42)"  >
<path style="stroke: none; stroke-width: 1; stroke-dasharray: none; stroke-linecap: butt; stroke-dashoffset: 0; stroke-linejoin: miter; stroke-miterlimit: 4; fill: rgb(52,63,82); fill-rule: nonzero; opacity: 1;" vector-effect="non-scaling-stroke"  transform=" translate(-110.41, -35.08)" d="M 85.1 42.978 L 85.1 40.668 L 91.876 34.629 C 92.404 34.1597 92.7707 33.716 92.976 33.298 C 93.1813 32.88 93.284 32.4767 93.284 32.088 C 93.284 31.56 93.1703 31.0907 92.943 30.68 C 92.7157 30.262 92.4003 29.932 91.997 29.69 C 91.601 29.448 91.1427 29.327 90.622 29.327 C 90.072 29.327 89.5843 29.4553 89.159 29.712 C 88.741 29.9613 88.4147 30.295 88.18 30.713 C 87.9453 31.131 87.8353 31.582 87.85 32.066 L 85.122 32.066 C 85.122 31.01 85.3567 30.0897 85.826 29.305 C 86.3027 28.5203 86.9553 27.9117 87.784 27.479 C 88.62 27.0463 89.5843 26.83 90.677 26.83 C 91.689 26.83 92.5983 27.0573 93.405 27.512 C 94.2117 27.9593 94.846 28.5827 95.308 29.382 C 95.77 30.174 96.001 31.087 96.001 32.121 C 96.001 32.8763 95.8983 33.5107 95.693 34.024 C 95.4877 34.5373 95.1797 35.0103 94.769 35.443 C 94.3657 35.8757 93.8633 36.356 93.262 36.884 L 88.455 41.141 L 88.213 40.481 L 96.001 40.481 L 96.001 42.978 L 85.1 42.978 Z M 103.342 43.33 C 102.536 43.33 101.784 43.165 101.087 42.835 C 100.391 42.4977 99.7895 42.0357 99.2835 41.449 C 98.7848 40.8623 98.4255 40.1803 98.2055 39.403 L 100.757 38.721 C 100.86 39.1463 101.047 39.513 101.318 39.821 C 101.597 40.129 101.92 40.3673 102.286 40.536 C 102.66 40.7047 103.045 40.789 103.441 40.789 C 103.955 40.789 104.424 40.6643 104.849 40.415 C 105.275 40.1657 105.612 39.832 105.861 39.414 C 106.111 38.9887 106.235 38.5193 106.235 38.006 C 106.235 37.4927 106.107 37.027 105.85 36.609 C 105.601 36.1837 105.264 35.85 104.838 35.608 C 104.413 35.3587 103.947 35.234 103.441 35.234 C 102.833 35.234 102.327 35.344 101.923 35.564 C 101.527 35.784 101.223 36.0187 101.01 36.268 L 98.7445 35.542 L 99.2285 27.16 L 107.83 27.16 L 107.83 29.646 L 100.647 29.646 L 101.637 28.711 L 101.285 34.541 L 100.801 33.947 C 101.212 33.573 101.689 33.2943 102.231 33.111 C 102.774 32.9277 103.298 32.836 103.804 32.836 C 104.794 32.836 105.671 33.0633 106.433 33.518 C 107.203 33.9653 107.805 34.5777 108.237 35.355 C 108.677 36.1323 108.897 37.016 108.897 38.006 C 108.897 38.996 108.641 39.8943 108.127 40.701 C 107.614 41.5003 106.936 42.1383 106.092 42.615 C 105.256 43.0917 104.34 43.33 103.342 43.33 Z M 117.234 43.33 C 116.112 43.33 115.122 43.0917 114.264 42.615 C 113.406 42.131 112.735 41.46 112.251 40.602 C 111.774 39.744 111.536 38.754 111.536 37.632 L 111.536 32.528 C 111.536 31.406 111.774 30.416 112.251 29.558 C 112.735 28.7 113.406 28.0327 114.264 27.556 C 115.122 27.072 116.112 26.83 117.234 26.83 C 118.356 26.83 119.342 27.072 120.193 27.556 C 121.051 28.0327 121.722 28.7 122.206 29.558 C 122.69 30.416 122.932 31.406 122.932 32.528 L 122.932 37.632 C 122.932 38.754 122.69 39.744 122.206 40.602 C 121.722 41.46 121.051 42.131 120.193 42.615 C 119.342 43.0917 118.356 43.33 117.234 43.33 Z M 117.234 40.811 C 117.791 40.811 118.297 40.679 118.752 40.415 C 119.207 40.1437 119.566 39.7843 119.83 39.337 C 120.094 38.8823 120.226 38.3763 120.226 37.819 L 120.226 32.33 C 120.226 31.7653 120.094 31.2593 119.83 30.812 C 119.566 30.3573 119.207 29.998 118.752 29.734 C 118.297 29.4627 117.791 29.327 117.234 29.327 C 116.677 29.327 116.171 29.4627 115.716 29.734 C 115.261 29.998 114.902 30.3573 114.638 30.812 C 114.374 31.2593 114.242 31.7653 114.242 32.33 L 114.242 37.819 C 114.242 38.3763 114.374 38.8823 114.638 39.337 C 114.902 39.7843 115.261 40.1437 115.716 40.415 C 116.171 40.679 116.677 40.811 117.234 40.811 Z M 129.735 40.052 L 129.735 36.114 L 125.797 36.114 L 125.797 34.035 L 129.735 34.035 L 129.735 30.108 L 131.814 30.108 L 131.814 34.035 L 135.73 34.035 L 135.73 36.114 L 131.814 36.114 L 131.814 40.052 L 129.735 40.052 Z" stroke-linecap="round" />
</g>
		<g transform="matrix(1 0 0 1 30.05 18.1)"  >
<path style="stroke: none; stroke-width: 1; stroke-dasharray: none; stroke-linecap: butt; stroke-dashoffset: 0; stroke-linejoin: miter; stroke-miterlimit: 4; fill: rgb(96,105,123); fill-rule: nonzero; opacity: 1;" vector-effect="non-scaling-stroke"  transform=" translate(-131.55, -63.61)" d="M 85.98 67 L 85.98 56.92 L 89.872 56.92 C 89.97 56.92 90.0797 56.9247 90.201 56.934 C 90.327 56.9387 90.453 56.9527 90.579 56.976 C 91.1063 57.0553 91.552 57.2397 91.916 57.529 C 92.2847 57.8137 92.5623 58.173 92.749 58.607 C 92.9403 59.041 93.036 59.5217 93.036 60.049 C 93.036 60.5717 92.9403 61.05 92.749 61.484 C 92.5577 61.918 92.2777 62.2797 91.909 62.569 C 91.545 62.8537 91.1017 63.0357 90.579 63.115 C 90.453 63.1337 90.327 63.1477 90.201 63.157 C 90.0797 63.1663 89.97 63.171 89.872 63.171 L 87.009 63.171 L 87.009 67 L 85.98 67 Z M 87.009 62.191 L 89.844 62.191 C 89.928 62.191 90.026 62.1863 90.138 62.177 C 90.25 62.1677 90.3597 62.1513 90.467 62.128 C 90.8123 62.0533 91.0947 61.911 91.314 61.701 C 91.538 61.491 91.7037 61.2413 91.811 60.952 C 91.923 60.6627 91.979 60.3617 91.979 60.049 C 91.979 59.7363 91.923 59.4353 91.811 59.146 C 91.7037 58.852 91.538 58.6 91.314 58.39 C 91.0947 58.18 90.8123 58.0377 90.467 57.963 C 90.3597 57.9397 90.25 57.9257 90.138 57.921 C 90.026 57.9117 89.928 57.907 89.844 57.907 L 87.009 57.907 L 87.009 62.191 Z M 94.5692 67 L 94.5692 59.44 L 95.4932 59.44 L 95.4932 61.26 L 95.3112 61.022 C 95.3952 60.798 95.5049 60.5927 95.6402 60.406 C 95.7756 60.2147 95.9226 60.0583 96.0812 59.937 C 96.2772 59.7643 96.5059 59.6337 96.7672 59.545 C 97.0286 59.4517 97.2922 59.398 97.5582 59.384 C 97.8242 59.3653 98.0669 59.384 98.2862 59.44 L 98.2862 60.406 C 98.0109 60.336 97.7099 60.3197 97.3832 60.357 C 97.0566 60.3943 96.7556 60.525 96.4802 60.749 C 96.2282 60.945 96.0392 61.1807 95.9132 61.456 C 95.7872 61.7267 95.7032 62.016 95.6612 62.324 C 95.6192 62.6273 95.5982 62.9283 95.5982 63.227 L 95.5982 67 L 94.5692 67 Z M 102.774 67.21 C 102.023 67.21 101.381 67.0397 100.849 66.699 C 100.317 66.3583 99.9091 65.887 99.6244 65.285 C 99.3398 64.683 99.1974 63.9923 99.1974 63.213 C 99.1974 62.4197 99.3421 61.7243 99.6314 61.127 C 99.9208 60.5297 100.331 60.0653 100.863 59.734 C 101.4 59.398 102.037 59.23 102.774 59.23 C 103.53 59.23 104.174 59.4003 104.706 59.741 C 105.243 60.077 105.651 60.546 105.931 61.148 C 106.216 61.7453 106.358 62.4337 106.358 63.213 C 106.358 64.0063 106.216 64.704 105.931 65.306 C 105.647 65.9033 105.236 66.37 104.699 66.706 C 104.163 67.042 103.521 67.21 102.774 67.21 Z M 102.774 66.223 C 103.614 66.223 104.24 65.9453 104.65 65.39 C 105.061 64.83 105.266 64.1043 105.266 63.213 C 105.266 62.2983 105.059 61.5703 104.643 61.029 C 104.233 60.4877 103.61 60.217 102.774 60.217 C 102.21 60.217 101.743 60.3453 101.374 60.602 C 101.01 60.854 100.737 61.2063 100.555 61.659 C 100.378 62.107 100.289 62.625 100.289 63.213 C 100.289 64.123 100.499 64.8533 100.919 65.404 C 101.339 65.95 101.958 66.223 102.774 66.223 Z M 106.923 70.36 L 106.923 69.366 L 107.35 69.366 C 107.69 69.366 107.961 69.2773 108.162 69.1 C 108.367 68.9273 108.47 68.6357 108.47 68.225 L 108.47 59.44 L 109.492 59.44 L 109.492 68.484 C 109.492 69.114 109.34 69.583 109.037 69.891 C 108.738 70.2037 108.278 70.36 107.658 70.36 L 106.923 70.36 Z M 108.47 58.005 L 108.47 56.85 L 109.492 56.85 L 109.492 58.005 L 108.47 58.005 Z M 114.895 67.21 C 114.158 67.21 113.519 67.0467 112.977 66.72 C 112.441 66.3933 112.023 65.9337 111.724 65.341 C 111.426 64.7483 111.276 64.053 111.276 63.255 C 111.276 62.429 111.423 61.715 111.717 61.113 C 112.011 60.511 112.424 60.0467 112.956 59.72 C 113.493 59.3933 114.125 59.23 114.853 59.23 C 115.6 59.23 116.237 59.4027 116.764 59.748 C 117.292 60.0887 117.691 60.5787 117.961 61.218 C 118.232 61.8573 118.356 62.6203 118.332 63.507 L 117.282 63.507 L 117.282 63.143 C 117.264 62.163 117.051 61.4233 116.645 60.924 C 116.244 60.4247 115.656 60.175 114.881 60.175 C 114.069 60.175 113.446 60.4387 113.012 60.966 C 112.583 61.4933 112.368 62.2447 112.368 63.22 C 112.368 64.172 112.583 64.9117 113.012 65.439 C 113.446 65.9617 114.06 66.223 114.853 66.223 C 115.395 66.223 115.866 66.0993 116.267 65.852 C 116.673 65.6 116.993 65.2383 117.226 64.767 L 118.185 65.138 C 117.887 65.796 117.446 66.307 116.862 66.671 C 116.284 67.0303 115.628 67.21 114.895 67.21 Z M 112.004 63.507 L 112.004 62.646 L 117.779 62.646 L 117.779 63.507 L 112.004 63.507 Z M 123.162 67.21 C 122.401 67.21 121.757 67.0397 121.23 66.699 C 120.702 66.3583 120.301 65.8893 120.026 65.292 C 119.755 64.69 119.615 63.9993 119.606 63.22 C 119.615 62.4267 119.76 61.7313 120.04 61.134 C 120.32 60.532 120.723 60.0653 121.251 59.734 C 121.778 59.398 122.417 59.23 123.169 59.23 C 123.934 59.23 124.599 59.4167 125.164 59.79 C 125.733 60.1633 126.123 60.6743 126.333 61.323 L 125.325 61.645 C 125.147 61.1923 124.865 60.8423 124.478 60.595 C 124.095 60.343 123.656 60.217 123.162 60.217 C 122.606 60.217 122.147 60.3453 121.783 60.602 C 121.419 60.854 121.148 61.2063 120.971 61.659 C 120.793 62.1117 120.702 62.632 120.698 63.22 C 120.707 64.1253 120.917 64.8533 121.328 65.404 C 121.738 65.95 122.35 66.223 123.162 66.223 C 123.675 66.223 124.111 66.1063 124.471 65.873 C 124.835 65.635 125.11 65.2897 125.297 64.837 L 126.333 65.145 C 126.053 65.817 125.642 66.3303 125.101 66.685 C 124.559 67.035 123.913 67.21 123.162 67.21 Z M 132.034 67 C 131.609 67.0887 131.189 67.1237 130.774 67.105 C 130.363 67.0863 129.994 66.9977 129.668 66.839 C 129.346 66.6803 129.101 66.433 128.933 66.097 C 128.797 65.817 128.723 65.5347 128.709 65.25 C 128.699 64.9607 128.695 64.6317 128.695 64.263 L 128.695 57.34 L 129.717 57.34 L 129.717 64.221 C 129.717 64.5383 129.719 64.8043 129.724 65.019 C 129.733 65.229 129.782 65.4157 129.871 65.579 C 130.039 65.8917 130.305 66.0783 130.669 66.139 C 131.037 66.1997 131.492 66.1857 132.034 66.097 L 132.034 67 Z M 127.078 60.322 L 127.078 59.44 L 132.034 59.44 L 132.034 60.322 L 127.078 60.322 Z M 136.484 67.203 C 135.597 67.203 134.867 67.0117 134.293 66.629 C 133.724 66.2463 133.374 65.7143 133.243 65.033 L 134.293 64.858 C 134.405 65.2873 134.659 65.6303 135.056 65.887 C 135.457 66.139 135.952 66.265 136.54 66.265 C 137.114 66.265 137.567 66.146 137.898 65.908 C 138.229 65.6653 138.395 65.3363 138.395 64.921 C 138.395 64.6877 138.341 64.4987 138.234 64.354 C 138.131 64.2047 137.919 64.067 137.597 63.941 C 137.275 63.815 136.794 63.6657 136.155 63.493 C 135.469 63.3063 134.932 63.1197 134.545 62.933 C 134.158 62.7463 133.882 62.5317 133.719 62.289 C 133.556 62.0417 133.474 61.7407 133.474 61.386 C 133.474 60.9567 133.595 60.581 133.838 60.259 C 134.081 59.9323 134.417 59.6803 134.846 59.503 C 135.275 59.321 135.775 59.23 136.344 59.23 C 136.913 59.23 137.422 59.3233 137.87 59.51 C 138.323 59.692 138.687 59.9487 138.962 60.28 C 139.237 60.6113 139.401 60.9963 139.452 61.435 L 138.402 61.624 C 138.332 61.1807 138.11 60.8307 137.737 60.574 C 137.368 60.3127 136.899 60.1773 136.33 60.168 C 135.793 60.154 135.357 60.2567 135.021 60.476 C 134.685 60.6907 134.517 60.9777 134.517 61.337 C 134.517 61.5377 134.578 61.7103 134.699 61.855 C 134.82 61.995 135.04 62.128 135.357 62.254 C 135.679 62.38 136.136 62.5177 136.729 62.667 C 137.424 62.8443 137.97 63.031 138.367 63.227 C 138.764 63.423 139.046 63.654 139.214 63.92 C 139.382 64.186 139.466 64.515 139.466 64.907 C 139.466 65.621 139.2 66.1833 138.668 66.594 C 138.141 67 137.413 67.203 136.484 67.203 Z M 144.101 67 L 144.101 56.92 L 147.16 56.92 C 147.268 56.92 147.45 56.9223 147.706 56.927 C 147.968 56.9317 148.217 56.9503 148.455 56.983 C 149.221 57.0903 149.86 57.375 150.373 57.837 C 150.887 58.299 151.272 58.887 151.528 59.601 C 151.785 60.315 151.913 61.1013 151.913 61.96 C 151.913 62.8187 151.785 63.605 151.528 64.319 C 151.272 65.033 150.887 65.621 150.373 66.083 C 149.86 66.545 149.221 66.8297 148.455 66.937 C 148.222 66.965 147.972 66.9837 147.706 66.993 C 147.44 66.9977 147.258 67 147.16 67 L 144.101 67 Z M 145.165 66.013 L 147.16 66.013 C 147.352 66.013 147.557 66.0083 147.776 65.999 C 148 65.985 148.192 65.9617 148.35 65.929 C 148.938 65.8263 149.412 65.5883 149.771 65.215 C 150.135 64.8417 150.401 64.375 150.569 63.815 C 150.737 63.2503 150.821 62.632 150.821 61.96 C 150.821 61.2833 150.737 60.6627 150.569 60.098 C 150.401 59.5333 150.135 59.0667 149.771 58.698 C 149.407 58.3293 148.934 58.0937 148.35 57.991 C 148.192 57.9583 147.998 57.9373 147.769 57.928 C 147.545 57.914 147.342 57.907 147.16 57.907 L 145.165 57.907 L 145.165 66.013 Z M 156.805 67.21 C 156.053 67.21 155.412 67.0397 154.88 66.699 C 154.348 66.3583 153.939 65.887 153.655 65.285 C 153.37 64.683 153.228 63.9923 153.228 63.213 C 153.228 62.4197 153.372 61.7243 153.662 61.127 C 153.951 60.5297 154.362 60.0653 154.894 59.734 C 155.43 59.398 156.067 59.23 156.805 59.23 C 157.561 59.23 158.205 59.4003 158.737 59.741 C 159.273 60.077 159.682 60.546 159.962 61.148 C 160.246 61.7453 160.389 62.4337 160.389 63.213 C 160.389 64.0063 160.246 64.704 159.962 65.306 C 159.677 65.9033 159.266 66.37 158.73 66.706 C 158.193 67.042 157.551 67.21 156.805 67.21 Z M 156.805 66.223 C 157.645 66.223 158.27 65.9453 158.681 65.39 C 159.091 64.83 159.297 64.1043 159.297 63.213 C 159.297 62.2983 159.089 61.5703 158.674 61.029 C 158.263 60.4877 157.64 60.217 156.805 60.217 C 156.24 60.217 155.773 60.3453 155.405 60.602 C 155.041 60.854 154.768 61.2063 154.586 61.659 C 154.408 62.107 154.32 62.625 154.32 63.213 C 154.32 64.123 154.53 64.8533 154.95 65.404 C 155.37 65.95 155.988 66.223 156.805 66.223 Z M 167.533 67 L 167.533 63.143 C 167.533 62.723 167.493 62.338 167.414 61.988 C 167.334 61.6333 167.206 61.3253 167.029 61.064 C 166.856 60.798 166.63 60.5927 166.35 60.448 C 166.074 60.3033 165.738 60.231 165.342 60.231 C 164.978 60.231 164.656 60.294 164.376 60.42 C 164.1 60.546 163.867 60.728 163.676 60.966 C 163.489 61.1993 163.347 61.484 163.249 61.82 C 163.151 62.156 163.102 62.5387 163.102 62.968 L 162.374 62.807 C 162.374 62.0323 162.509 61.3813 162.78 60.854 C 163.05 60.3267 163.424 59.9277 163.9 59.657 C 164.376 59.3863 164.922 59.251 165.538 59.251 C 165.99 59.251 166.385 59.321 166.721 59.461 C 167.061 59.601 167.348 59.79 167.582 60.028 C 167.82 60.266 168.011 60.539 168.156 60.847 C 168.3 61.1503 168.405 61.4747 168.471 61.82 C 168.536 62.1607 168.569 62.5013 168.569 62.842 L 168.569 67 L 167.533 67 Z M 162.066 67 L 162.066 59.44 L 162.997 59.44 L 162.997 61.302 L 163.102 61.302 L 163.102 67 L 162.066 67 Z M 173.683 67.21 C 172.946 67.21 172.307 67.0467 171.765 66.72 C 171.229 66.3933 170.811 65.9337 170.512 65.341 C 170.214 64.7483 170.064 64.053 170.064 63.255 C 170.064 62.429 170.211 61.715 170.505 61.113 C 170.799 60.511 171.212 60.0467 171.744 59.72 C 172.281 59.3933 172.913 59.23 173.641 59.23 C 174.388 59.23 175.025 59.4027 175.552 59.748 C 176.08 60.0887 176.479 60.5787 176.749 61.218 C 177.02 61.8573 177.144 62.6203 177.12 63.507 L 176.07 63.507 L 176.07 63.143 C 176.052 62.163 175.839 61.4233 175.433 60.924 C 175.032 60.4247 174.444 60.175 173.669 60.175 C 172.857 60.175 172.234 60.4387 171.8 60.966 C 171.371 61.4933 171.156 62.2447 171.156 63.22 C 171.156 64.172 171.371 64.9117 171.8 65.439 C 172.234 65.9617 172.848 66.223 173.641 66.223 C 174.183 66.223 174.654 66.0993 175.055 65.852 C 175.461 65.6 175.781 65.2383 176.014 64.767 L 176.973 65.138 C 176.675 65.796 176.234 66.307 175.65 66.671 C 175.072 67.0303 174.416 67.21 173.683 67.21 Z M 170.792 63.507 L 170.792 62.646 L 176.567 62.646 L 176.567 63.507 L 170.792 63.507 Z" stroke-linecap="round" />
</g>
</g>
</g>
<g transform="matrix(1.25 0 0 0.63 580.19 521.58)" id="62afd424-363d-4fcd-87ea-847d3cb26ff7"  >
<circle style="stroke: rgb(255,255,255); stroke-width: 0; stroke-dasharray: none; stroke-linecap: butt; stroke-dashoffset: 0; stroke-linejoin: miter; stroke-miterlimit: 4; fill: rgb(255,255,255); fill-rule: nonzero; opacity: 1;" vector-effect="non-scaling-stroke"  cx="0" cy="0" r="35" />
</g>
<g transform="matrix(0.26 0 0 0.31 580.01 527.66)" style="" id="923935b9-6a1a-4296-b699-09fb7204ef7b"  >
		<text xml:space="preserve" font-family="Raleway" font-size="105" font-style="normal" font-weight="700" style="stroke: none; stroke-width: 1; stroke-dasharray: none; stroke-linecap: butt; stroke-dashoffset: 0; stroke-linejoin: miter; stroke-miterlimit: 4; fill: rgb(96,105,123); fill-rule: nonzero; opacity: 1; white-space: pre;" ><tspan x="-124.67" y="32.98" >100+</tspan></text>
</g>
<g transform="matrix(0 0 0 0 0 0)"  >
<g style=""   >
</g>
</g>
<g transform="matrix(NaN NaN NaN NaN 0 0)"  >
<g style=""   >
</g>
</g>
</svg>