<svg xmlns="http://www.w3.org/2000/svg" viewBox="0 0 32 32" id="Layer">
  <path d="m28.568 6.242-11.93-5.6a1.502 1.502 0 0 0-1.276 0l-11.93 5.6a1.499 1.499 0 0 0 0 2.715l11.93 5.6a1.503 1.503 0 0 0 1.276 0l11.93-5.6a1.5 1.5 0 0 0 0-2.715zM16 11.542 7.6 7.6 16 3.657l8.4 3.942-8.4 3.944z" fill="#a594f9" class="color000000 svgShape"></path>
  <path d="M29.288 12.562a1.5 1.5 0 0 0-1.995-.72L16 17.143l-11.293-5.3a1.499 1.499 0 1 0-1.275 2.715l11.93 5.6a1.503 1.503 0 0 0 1.276 0l11.93-5.6a1.499 1.499 0 0 0 .72-1.995z" fill="#a594f9" class="color000000 svgShape"></path>
  <path d="M29.288 18.162a1.5 1.5 0 0 0-1.995-.72L16 22.742l-11.293-5.3a1.499 1.499 0 1 0-1.275 2.715l11.93 5.6a1.503 1.503 0 0 0 1.276 0l11.93-5.6a1.499 1.499 0 0 0 .72-1.995z" fill="#a594f9" class="color000000 svgShape"></path>
  <path d="M29.288 23.762a1.5 1.5 0 0 0-1.995-.72L16 28.343l-11.293-5.3a1.499 1.499 0 1 0-1.275 2.716l11.93 5.6a1.503 1.503 0 0 0 1.276 0l11.93-5.6a1.499 1.499 0 0 0 .72-1.996z" fill="#a594f9" class="color000000 svgShape"></path>
</svg>
